<svg xmlns="http://www.w3.org/2000/svg" width="16" height="16" class="icon" p-id="6025" t="1735035672553" version="1.1" viewBox="0 0 1024 1024"><path fill="#FF8F00" d="M362.752 476.864h298.496v67.328H362.752z" p-id="6027"/><path fill="#FF8F00" d="M810.816 232.64H613.312l47.68 67.456 144 44.16a62.272 62.272 0 0 1 43.456 59.776V619.968a62.272 62.272 0 0 1-43.52 59.84l-144 44.096-47.616 67.456h197.504A149.184 149.184 0 0 0 960 642.176V381.824a149.184 149.184 0 0 0-149.184-149.12z m-597.632 0h197.504L363.008 300.16l-144 44.16a62.272 62.272 0 0 0-43.456 59.776V619.968a62.272 62.272 0 0 0 43.52 59.84l144 44.096 47.616 67.456H213.184A149.184 149.184 0 0 1 64 642.176V381.824a149.184 149.184 0 0 1 149.184-149.12z" p-id="6028"/></svg>